<svg xmlns="http://www.w3.org/2000/svg" width="18" height="18" viewBox="0 0 18 18"><g><g><path fill="#1d1c1c" d="M12.67 15.339v-4.177c0-.996-.02-2.278-1.39-2.278-1.389 0-1.601 1.084-1.601 2.205v4.25H7.013V6.75h2.56v1.17h.035c.358-.674 1.228-1.387 2.528-1.387 2.7 0 3.2 1.778 3.2 4.091v4.715zM3.41 5.458a1.546 1.546 0 0 1-.694-2.292 1.548 1.548 0 1 1 .694 2.292zm-.744 9.881V6.75H5.34v8.589zM1.329 0C.593 0 0 .58 0 1.297v15.406C0 17.42.594 18 1.328 18h15.338C17.4 18 18 17.42 18 16.703V1.297C18 .58 17.4 0 16.666 0z"/></g></g></svg>