<svg width="188" height="19" viewBox="0 0 188 19" fill="none" xmlns="http://www.w3.org/2000/svg">
<g opacity="0.6">
<path d="M7.905 15L7.125 12.45H3.225L2.445 15H0L3.78 4.245H6.555L10.35 15H7.905ZM6.585 10.545L5.805 8.055C5.755 7.885 5.69 7.67 5.61 7.41C5.53 7.15 5.45 6.885 5.37 6.615C5.29 6.345 5.225 6.11 5.175 5.91C5.125 6.11 5.055 6.36 4.965 6.66C4.885 6.95 4.805 7.23 4.725 7.5C4.655 7.76 4.6 7.945 4.56 8.055L3.795 10.545H6.585Z" fill="white"/>
<path d="M181.865 6.075C183.41 6.075 184.91 7.14 184.91 9.09C184.91 10.785 183.68 11.88 182.405 12.15V15H186.935V13.11H184.25C185.72 12.525 187.055 11.04 187.055 8.955C187.055 5.985 184.61 4.125 181.865 4.125C179.12 4.125 176.675 5.985 176.675 8.955C176.675 11.04 177.995 12.525 179.465 13.11H176.78V15H181.31V12.15C180.035 11.88 178.82 10.785 178.82 9.09C178.82 7.14 180.32 6.075 181.865 6.075Z" fill="white"/>
<line x1="21" y1="9.5" x2="166" y2="9.5" stroke="white"/>
</g>
</svg>
